<svg xmlns="http://www.w3.org/2000/svg" version="1.1" xmlns:xlink="http://www.w3.org/1999/xlink" xmlns:svgjs="http://svgjs.com/svgjs" width="1000" height="1000"><rect width="1000" height="1000" rx="200" ry="200" fill="#ffffff"></rect><g transform="matrix(0.03333333333333333,0,0,0.03333333333333333,-0.0004720052074844716,0.00005900065116293263)"><svg xmlns="http://www.w3.org/2000/svg" version="1.1" xmlns:xlink="http://www.w3.org/1999/xlink" xmlns:svgjs="http://svgjs.com/svgjs" width="30000" height="30000"><svg xml:space="preserve" width="30000" height="30000" version="1.1" style="clip-rule:evenodd;fill-rule:evenodd;image-rendering:optimizeQuality;shape-rendering:geometricPrecision;text-rendering:geometricPrecision" viewBox="0 0 7937.5 7937.5" id="svg2" inkscape:version="1.2.2 (732a01da63, 2022-12-09)" sodipodi:docname="CoderDojo Tulln Split (light bg).svg" inkscape:export-filename="CoderDojo Tulln Split (light bg).png" inkscape:export-xdpi="2.5599999" inkscape:export-ydpi="2.5599999" xmlns:inkscape="http://www.inkscape.org/namespaces/inkscape" xmlns:sodipodi="http://sodipodi.sourceforge.net/DTD/sodipodi-0.dtd" xmlns="http://www.w3.org/2000/svg" xmlns:svg="http://www.w3.org/2000/svg" xmlns:rdf="http://www.w3.org/1999/02/22-rdf-syntax-ns#" xmlns:cc="http://creativecommons.org/ns#" xmlns:dc="http://purl.org/dc/elements/1.1/"><title id="title9550">CoderDojo Tulln</title><metadata id="metadata23"><rdf:rdf><cc:work rdf:about=""><dc:format>image/svg+xml</dc:format><dc:type rdf:resource="http://purl.org/dc/dcmitype/StillImage"></dc:type><dc:title>CoderDojo Tulln</dc:title></cc:work></rdf:rdf></metadata><sodipodi:namedview pagecolor="#ffffff" bordercolor="#666666" borderopacity="1" objecttolerance="10" gridtolerance="10" guidetolerance="10" inkscape:pageopacity="0" inkscape:pageshadow="2" inkscape:window-width="1920" inkscape:window-height="1009" id="namedview21" showgrid="false" inkscape:zoom="0.026893765" inkscape:cx="4647.9175" inkscape:cy="14984.886" inkscape:window-x="-8" inkscape:window-y="-8" inkscape:window-maximized="1" inkscape:current-layer="Layer_x0020_1" inkscape:showpageshadow="2" inkscape:pagecheckerboard="true" inkscape:deskcolor="#d1d1d1" inkscape:document-units="px"></sodipodi:namedview>
 <defs id="defs4">
  <style type="text/css" id="style6">
   
    .fil1 {fill:#FEFEFE}
    .fil0 {fill:black}
    .fil2 {fill:white}
   
  </style>
 
   
   
   
   
  </defs>
 <g id="Layer_x0020_1" inkscape:label="Layer 1" inkscape:groupmode="layer" transform="translate(-778.48463,-15.887441)">
  <metadata id="CorelCorpID_0Corel-Layer"></metadata>
  <path class="fil0" d="m 2467.4902,5447.3019 v 231.386 c -1.8081,68.5825 -15.0676,130.1145 -38.5732,183.3141 -19.2868,45.508 -49.4222,89.0932 -92.8172,123.705 -42.7923,36.5346 -101.255,57.0452 -178.4017,57.0452 -77.7493,0 -138.0209,-20.5106 -180.8131,-57.0452 -42.7924,-34.6118 -71.1196,-77.556 -90.4063,-123.705 -23.5056,-52.5586 -36.7652,-114.0906 -38.5734,-183.3141 V 4687.766 c 2.4109,-66.6597 15.0678,-128.1917 38.5734,-180.7503 19.2867,-45.508 47.0112,-91.6571 90.4063,-125.6278 42.7922,-34.6118 103.0638,-57.0454 180.8131,-57.0454 77.7494,0 135.6094,23.0745 178.4017,57.0454 42.7923,34.6117 72.9277,80.1198 92.8172,125.6278 23.5056,52.5586 36.7651,114.0906 38.5732,180.7503 v 231.386 h -217.5777 v -231.386 c 0,-45.508 -10.8487,-77.556 -34.3544,-105.1172 -10.8487,-11.5372 -30.1354,-18.5878 -53.641,-18.5878 -40.9842,0 -60.2708,32.0479 -71.1196,61.532 -6.6299,18.5878 -8.4379,39.0985 -10.8487,62.173 v 990.9219 c 2.4108,48.0719 15.0676,80.1198 36.7651,105.1171 10.8488,11.5373 25.9165,18.5878 45.2032,18.5878 49.4221,0 68.7087,-27.5611 79.5575,-61.532 6.6298,-16.024 8.4379,-36.5346 8.4379,-61.532 v -231.386 h 217.5777 z m 677.4443,272.4072 c -6.6298,121.1412 -40.9841,205.7477 -116.3227,272.4074 -38.5734,34.6118 -92.8171,49.9948 -163.3339,49.9948 -139.8284,0 -208.5372,-82.6836 -243.4943,-164.7264 -19.2866,-48.0718 -32.5462,-103.1943 -34.3544,-164.7263 v -629.4212 c 6.6298,-121.1412 40.9842,-210.2344 116.3228,-278.817 36.7652,-34.6117 90.4062,-50.6357 161.5259,-50.6357 139.8283,0 210.9479,82.6836 245.3022,162.8035 19.2868,48.0719 32.5463,100.6305 34.3544,160.2396 z m -204.3181,-636.4717 c 2.4108,-48.0719 -6.6298,-82.0426 -27.7246,-109.6039 -10.8488,-11.5373 -27.7246,-18.5878 -47.0112,-18.5878 -40.9842,0 -58.4628,29.4841 -66.9007,64.0958 -6.6298,18.5879 -8.4379,39.0985 -6.6298,64.0959 v 629.4212 c -1.8081,48.0719 8.4379,82.6837 27.7246,107.6811 10.8488,11.5372 25.9164,18.5878 45.2032,18.5878 40.9841,0 60.2708,-27.5612 68.7087,-61.532 6.6298,-18.5878 8.4379,-39.0985 6.6298,-64.0959 v -629.4212 z m 904.6654,940.927 h -217.5777 v -82.6836 c -36.7653,36.5347 -68.7088,64.0958 -109.693,84.6066 -21.6975,11.5372 -43.395,16.0239 -62.6817,16.0239 -60.2708,0 -101.255,-36.5347 -127.1715,-84.6065 -27.7245,-45.5081 -40.9842,-107.681 -40.9842,-160.2396 v -798.6343 c 0,-52.5587 12.6569,-114.0907 40.9842,-162.1626 25.9165,-45.508 66.9007,-82.6836 127.1715,-82.6836 40.9842,0 83.7765,24.9974 116.3228,50.6357 19.2866,16.024 36.7651,32.0479 56.0519,49.9948 v -512.7668 h 217.5777 v 1681.8751 z m -217.5777,-977.4616 c 0,-36.5347 -32.5463,-75.6331 -64.4899,-75.6331 -32.5462,0 -57.86,32.0479 -57.86,75.6331 v 702.4905 c 0,43.5851 25.9165,75.6331 57.86,75.6331 32.5463,0 64.4899,-32.048 64.4899,-75.6331 z m 936.0062,528.7907 v 144.2156 c -6.6298,121.1412 -40.9842,205.7477 -118.1309,272.4074 -38.5733,34.6118 -92.8171,49.9948 -163.334,49.9948 -139.8283,0 -210.948,-82.6836 -245.3023,-164.7264 -19.2867,-48.0718 -32.5463,-103.1943 -34.3544,-164.7263 v -629.4212 c 6.6298,-121.1412 42.7923,-210.2344 120.5417,-278.817 36.7652,-34.6117 90.4063,-50.6357 161.5258,-50.6357 139.8284,0 210.948,82.6836 245.3024,162.8035 19.2867,48.0719 32.5463,100.6305 34.3544,160.2396 v 364.0645 h -359.2143 v 272.4073 c 2.4109,48.0719 15.0677,82.6837 34.3544,107.681 10.8487,11.5373 25.9165,18.5878 45.2031,18.5878 40.9843,0 60.2709,-27.5611 68.7088,-61.532 6.6298,-18.5878 8.4379,-39.0984 8.4379,-64.0958 V 5576.7754 H 4564.313 Z M 4204.496,5259.501 h 157.3069 v -176.2636 c 0,-48.0719 -8.4379,-82.0426 -30.1354,-109.6039 -10.8487,-11.5373 -27.7246,-18.5878 -47.0113,-18.5878 -40.9841,0 -58.4627,29.4841 -68.7088,64.0958 -6.6297,18.5879 -8.4378,39.0985 -10.8487,64.0959 v 176.2636 z m 939.0198,-249.3329 c -19.2867,-7.0505 -40.9842,-8.9733 -60.2708,-8.9733 -34.3544,0 -75.3386,4.4866 -109.693,39.0984 -40.9842,36.5346 -47.614,75.6331 -47.614,114.0906 v 869.7806 H 4708.3603 V 4772.3725 h 217.5777 v 139.729 c 2.4109,-16.024 17.4786,-55.1224 51.8329,-91.6571 34.3544,-34.6118 86.1873,-66.6597 165.7449,-66.6597 z m 94.6252,1013.9963 V 4342.2893 h 183.2234 c 215.1669,0 331.4897,45.5081 393.5686,173.6998 60.2709,128.1917 68.7087,339.0671 68.7087,668.5198 0,329.4526 -8.4378,537.7641 -68.7087,665.9558 -62.0789,128.1917 -178.4017,173.6997 -393.5686,173.6997 z m 232.6455,-247.4099 c 79.5575,0 124.7606,-8.9735 148.2662,-91.657 10.8488,-39.0986 19.2868,-98.7076 21.6976,-178.1865 2.4108,-80.1199 2.4108,-187.8008 2.4108,-324.966 0,-137.1651 0,-244.8461 -2.4108,-324.9659 -1.8081,-77.556 -10.8488,-137.1652 -21.6976,-178.1865 -23.5056,-80.1199 -68.7087,-89.0932 -148.2662,-89.0932 v 1187.6961 z m 1104.1619,-57.0454 c -6.6298,121.1412 -40.9842,205.7477 -116.3227,272.4074 -38.5734,34.6118 -92.8171,49.9948 -163.3341,49.9948 -139.8283,0 -208.5371,-82.6836 -243.4941,-164.7264 -19.2868,-48.0718 -32.5463,-103.1943 -34.3544,-164.7263 v -629.4212 c 6.6298,-121.1412 40.9841,-210.2344 116.3227,-278.817 36.7652,-34.6117 90.4063,-50.6357 161.5258,-50.6357 139.8284,0 210.948,82.6836 245.3024,162.8035 19.2867,48.0719 32.5463,100.6305 34.3544,160.2396 z m -204.3182,-636.4717 c 2.4109,-48.0719 -6.6298,-82.0426 -27.7245,-109.6039 -10.8488,-11.5373 -27.7246,-18.5878 -47.0114,-18.5878 -40.9841,0 -58.4627,29.4841 -66.9006,64.0958 -6.6297,18.5879 -8.4379,39.0985 -6.6297,64.0959 v 629.4212 c -1.8082,48.0719 8.4378,82.6837 27.7245,107.6811 10.8487,11.5372 25.9165,18.5878 45.2031,18.5878 40.9842,0 60.2709,-27.5612 68.7088,-61.532 6.6298,-18.5878 8.438,-39.0985 6.6298,-64.0959 v -629.4212 z m 348.9682,-741.589 h 217.5777 v 231.386 h -217.5777 z m 217.5777,430.0832 v 1283.8399 c 0,64.0958 0,164.7263 -30.1354,247.4099 -30.1354,84.6065 -97.036,151.2662 -219.3858,151.2662 -34.3544,0 -57.86,-2.5638 -72.9278,-7.0505 -8.4378,-2.5639 -15.0677,-4.4867 -21.6975,-7.0505 v -212.7983 c 6.6298,1.9229 12.657,1.9229 19.2867,4.4868 15.0677,2.5638 27.7246,4.4866 40.9842,4.4866 36.7652,0 53.641,-32.0479 62.079,-71.1463 2.4108,-18.5878 4.2189,-39.0985 4.2189,-59.6092 0,-20.5107 0,-39.0985 0,-52.5586 v -1281.276 z m 709.3879,947.3366 c -6.6298,121.1412 -40.9842,205.7477 -116.3227,272.4074 -38.5734,34.6118 -92.8171,49.9947 -163.334,49.9947 -139.8284,0 -208.5371,-82.6836 -243.4942,-164.7263 -19.2866,-48.0719 -32.5463,-103.1943 -34.3544,-164.7263 v -629.4212 c 6.6298,-121.1412 40.9842,-210.2345 116.3227,-278.817 36.7653,-34.6118 90.4063,-50.6357 161.5259,-50.6357 139.8284,0 210.9479,82.6836 245.3023,162.8035 19.2867,48.0718 32.5463,100.6304 34.3544,160.2396 z m -204.3181,-636.4717 c 2.4108,-48.0719 -6.6299,-82.0428 -27.7246,-109.6039 -10.8488,-11.5373 -27.7246,-18.5878 -47.0113,-18.5878 -40.9842,0 -58.4627,29.4841 -66.9006,64.0958 -6.6298,18.5878 -8.438,39.0985 -6.6298,64.0959 v 629.4212 c -1.8082,48.0719 8.4379,82.6837 27.7245,107.681 10.8488,11.5373 25.9165,18.5878 45.2032,18.5878 40.9842,0 60.2708,-27.5612 68.7087,-61.532 6.6299,-18.5878 8.438,-39.0985 6.6299,-64.0959 v -629.4212 z" id="path10" style="stroke-width:0.621539"></path>
  <ellipse class="fil1" cx="4747.2349" cy="2084.8335" id="circle13" style="stroke-width:0.621539" rx="1717.7191" ry="1826.7317"></ellipse><path class="fil0" d="m 4747.2346,221.56721 c 967.3471,0 1752.0735,833.88699 1752.0735,1863.26639 0,1028.7384 -784.1237,1863.2663 -1752.0735,1863.2663 -967.347,0 -1752.0733,-833.887 -1752.0733,-1863.2663 0,-1028.7384 784.1235,-1863.26639 1752.0733,-1863.26639 z m -17.4786,96.14378 c -8.4378,0 -16.273,0 -24.711,0.64095 -905.8708,14.10109 -1636.9561,799.91616 -1636.9561,1766.48166 0,967.8473 732.8934,1754.3034 1639.9697,1766.4816 -448.4152,-12.1782 -809.4375,-403.1629 -809.4375,-883.2408 0,-487.7694 372.4738,-883.2408 830.5322,-883.2408 458.6612,0 830.5323,-396.1124 830.5323,-883.2409 0,-487.76936 -372.4738,-883.24076 -830.5323,-883.24076 z" id="path15" style="fill:#93bf20;fill-opacity:1;stroke-width:0.621539"></path><path class="fil0" d="M 4486.262,1375.2926 V 717.02813 c 0,-28.84313 9.6432,-53.84051 29.5327,-74.35119 19.8893,-21.15162 43.3949,-31.40696 70.5168,-31.40696 h 323.0516 c 26.5192,0 50.0248,10.25534 69.3116,31.40696 19.2866,21.15163 29.5327,46.14901 29.5327,74.35119 v 658.26447 c 0,29.4841 -9.6434,54.4814 -29.5327,74.9921 -19.2868,20.5106 -42.7924,31.4069 -70.517,31.4069 h -321.2435 c -27.7246,0 -51.8329,-10.2552 -71.1195,-31.4069 -19.2868,-20.5107 -28.93,-45.508 -28.93,-74.9921 z m 418.8822,-3.8458 v -649.291 h -315.2164 v 649.291 z" id="path17" style="fill:#93bf20;fill-opacity:1;stroke-width:0.621539"></path><path class="fil2" d="m 4538.3962,3366.1097 h 159.115 v -649.291 h -156.7041 c -14.4651,0 -26.5192,-5.1277 -36.7653,-16.024 -10.2461,-10.8962 -15.0677,-23.7155 -15.0677,-39.0985 0,-15.383 4.8216,-28.2022 15.0677,-39.0985 10.2461,-10.8962 22.3002,-16.0239 36.7653,-16.0239 h 259.7673 v 759.5359 h 103.6658 v -229.4632 c 0,-14.7421 4.8217,-27.5613 15.0678,-38.4575 10.2459,-10.8963 22.3001,-16.6649 36.7651,-16.6649 14.4651,0 26.5193,5.1277 36.7652,16.0239 10.2461,10.8963 15.0678,23.7154 15.0678,39.0985 v 284.5856 c 0,15.383 -4.8217,28.2021 -15.0678,39.0984 -10.2459,10.8963 -22.3001,16.024 -36.7652,16.024 h -417.6769 c -14.465,0 -26.5192,-5.7686 -36.7652,-16.6649 -10.2461,-10.8963 -15.0677,-24.3564 -15.0677,-39.7395 0,-14.742 4.8216,-27.5612 15.0677,-37.8165 10.246,-10.2554 22.3002,-16.0239 36.7652,-16.0239 z" id="path19" style="stroke-width:0.621539"></path>
 <g id="g363" transform="matrix(0.28929787,0,0,0.30765775,9454.7262,5848.8502)" inkscape:label="Tulln"><path class="cls-1" d="M -23660.258,5946.5066 V 2751.6054 h -943.35 q -177.367,0 -177.367,-295.9899 v -184.6217 q 0,-295.9426 177.367,-295.9426 h 2804.925 q 177.37,0 177.37,295.9426 v 184.6217 q 0,295.9899 -177.37,295.9899 h -950.199 v 3194.9012 q 0,190.2647 -354.733,190.2647 h -207.282 q -355.222,0 -355.222,-190.2647" id="path267" style="fill:#93bf20;stroke-width:140.931" inkscape:label="T"></path><path class="cls-1" d="M -21182.883,4737.3368 V 2152.635 q 0,-190.2559 355.226,-190.2559 h 201.33 q 355.311,0 355.311,190.2559 v 2525.4692 a 660.96597,660.96597 0 0 0 225.29,515.8219 845.5855,845.5855 0 0 0 580.593,201.5498 845.5855,845.5855 0 0 0 583.816,-201.5498 658.14742,658.14742 0 0 0 227.939,-515.8219 V 2152.635 q 0,-190.2559 355.313,-190.2559 h 200.251 q 356.381,0 354.737,190.2559 v 2584.7018 a 1302.2017,1302.2017 0 0 1 -450.569,1058.3776 q -451.144,376.2657 -1268.763,376.2657 -817.116,0 -1268.261,-376.2657 a 1302.2017,1302.2017 0 0 1 -450.643,-1058.3776" id="path269" style="fill:#93bf20;stroke-width:140.931" inkscape:label="U"></path><path class="cls-1" d="M -16943.562,5887.3315 V 2152.635 q 0,-190.2559 354.735,-190.2559 h 201.908 q 354.734,0 354.734,190.2559 v 3189.2577 h 1316.764 q 177.366,0 177.366,295.9426 v 183.2333 q 0,295.9413 -177.366,295.9413 h -1991.616 a 209.98706,209.98706 0 0 1 -236.525,-236.7663" id="path271" style="fill:#93bf20;stroke-width:140.931" inkscape:label="L"></path><path class="cls-1" d="M -14075.763,5887.3315 V 2152.635 q 0,-190.2559 355.311,-190.2559 h 201.331 q 355.312,0 355.312,190.2559 v 3189.2577 h 1322.046 q 177.369,0 177.369,295.9426 v 183.2333 q 0,295.9413 -177.369,295.9413 h -1995.908 a 209.98706,209.98706 0 0 1 -236.435,-236.7663" id="path273" style="fill:#93bf20;stroke-width:140.931" inkscape:label="L"></path><path class="cls-1" d="M -11206.31,5946.5066 V 2152.635 q 0,-190.2559 355.228,-190.2559 h 254.61 a 435.47652,435.47652 0 0 1 392.076,160.6476 l 1558.5703,2395.8104 V 2152.635 q 0,-190.2559 355.2239,-190.2559 h 172.0837 q 355.2395,0 355.2395,190.2559 v 3793.8716 q 0,190.2647 -355.2395,190.2647 h -225.8697 a 435.47652,435.47652 0 0 1 -391.4843,-159.261 L -10324.264,3546.434 v 2395.81 q 0,190.2634 -355.315,190.2634 h -171.503 q -355.228,0 -355.228,-190.2634" id="path275" style="fill:#93bf20;stroke-width:140.931" inkscape:label="N"></path></g></g>
</svg></svg></g></svg>