<?xml version="1.0" standalone="no"?>
<!DOCTYPE svg PUBLIC "-//W3C//DTD SVG 20010904//EN"
 "http://www.w3.org/TR/2001/REC-SVG-20010904/DTD/svg10.dtd">
<svg version="1.0" xmlns="http://www.w3.org/2000/svg"
 width="800.000000pt" height="800.000000pt" viewBox="0 0 800.000000 800.000000"
 preserveAspectRatio="xMidYMid meet">
<metadata>
Created by potrace 1.14, written by Peter Selinger 2001-2017
</metadata>
<g transform="translate(0.000000,800.000000) scale(0.100000,-0.100000)"
fill="#000000" stroke="none">
<path d="M3819 7786 c-3 -3 -35 -9 -119 -21 -104 -14 -293 -76 -420 -136 -402
-192 -725 -540 -903 -974 -45 -110 -99 -294 -111 -380 -3 -22 -8 -51 -11 -65
-17 -83 -24 -330 -12 -470 53 -662 453 -1258 1028 -1533 248 -119 467 -169
734 -168 196 1 327 22 515 82 327 104 636 329 861 624 56 73 154 236 196 326
221 470 247 1030 72 1515 -37 104 -123 283 -160 336 -10 14 -19 29 -19 32 0 9
-96 142 -149 206 -105 127 -293 292 -431 378 -139 87 -384 186 -537 216 -43 9
-91 18 -108 22 -32 7 -420 16 -426 10z"/>
<path d="M1305 3648 c-95 -25 -168 -105 -206 -226 -20 -64 -20 -88 -21 -617 0
-302 3 -566 6 -585 19 -103 71 -197 137 -246 76 -56 208 -64 306 -19 77 37
154 159 169 272 10 82 10 292 -1 296 -5 2 -55 4 -110 3 l-100 -1 -2 -141 c-1
-155 -13 -199 -57 -210 -48 -12 -70 -1 -94 46 l-22 45 0 531 c1 480 2 533 18
565 34 68 105 72 138 7 13 -26 17 -61 17 -170 l0 -138 56 -1 c95 -2 154 0 159
6 8 7 4 282 -3 305 -3 10 -8 28 -10 40 -8 43 -53 126 -88 163 -20 21 -57 47
-82 58 -53 23 -153 31 -210 17z"/>
<path d="M2870 3385 l0 -255 -51 39 c-65 49 -108 62 -156 49 -47 -13 -84 -52
-111 -119 -22 -51 -22 -60 -19 -533 l2 -481 29 -58 c35 -68 79 -100 136 -99
39 1 66 14 133 65 l37 29 0 -36 c0 -20 3 -37 8 -37 4 -1 53 -2 110 -3 l102 -2
0 848 0 848 -110 0 -110 0 0 -255z m-26 -400 l26 -24 0 -386 0 -386 -24 -24
c-26 -26 -46 -25 -78 3 -17 14 -18 46 -18 396 0 210 3 391 6 402 5 18 34 41
55 43 3 1 18 -10 33 -24z"/>
<path d="M4499 3638 c-1 -1 -2 -382 -3 -845 -1 -570 2 -844 9 -846 11 -4 287
1 320 6 175 26 261 120 295 323 17 96 23 244 24 504 0 313 -12 505 -38 595 -2
6 -6 23 -11 39 -13 47 -54 114 -88 142 -70 59 -157 79 -359 83 -82 1 -149 1
-149 -1z m348 -283 c25 -29 41 -80 49 -157 6 -62 7 -784 1 -813 -3 -11 -8 -40
-12 -65 -13 -82 -41 -112 -113 -125 l-42 -7 0 602 0 603 48 -7 c33 -4 54 -14
69 -31z"/>
<path d="M5989 3613 c-2 -112 2 -197 10 -202 7 -5 142 -6 198 -2 8 1 12 34 11
116 l-1 115 -108 0 -109 0 -1 -27z"/>
<path d="M2036 3218 c-57 -12 -100 -43 -139 -96 -70 -97 -74 -131 -72 -568 2
-399 4 -414 59 -509 58 -98 183 -141 314 -106 75 21 157 127 178 231 10 50 11
724 2 790 -11 75 -60 172 -103 204 -69 53 -157 73 -239 54z m104 -208 c36 -19
40 -62 40 -436 0 -318 -2 -368 -17 -398 -29 -62 -100 -58 -122 5 -15 43 -15
746 -1 786 18 48 58 66 100 43z"/>
<path d="M3458 3215 c-91 -23 -162 -105 -193 -224 -14 -54 -16 -117 -13 -445
3 -374 4 -382 27 -440 30 -76 99 -147 160 -164 91 -28 198 -13 256 36 76 62
113 155 119 297 5 128 11 121 -102 120 l-97 0 -6 -110 c-4 -60 -7 -111 -8
-112 0 -1 -11 -11 -23 -23 -24 -22 -55 -25 -79 -7 -36 28 -43 59 -45 224 l-2
163 182 2 181 3 1 195 c0 254 -19 341 -95 421 -58 60 -171 88 -263 64z m122
-215 c28 -28 31 -50 28 -175 l-3 -110 -75 0 -75 0 1 105 c0 58 3 117 7 133 16
62 77 87 117 47z"/>
<path d="M4347 3219 c-72 -16 -119 -52 -151 -114 l-16 -30 0 65 0 66 -110 0
-110 0 2 -630 3 -631 105 0 105 0 5 467 c5 452 6 467 26 494 38 52 68 67 133
67 l61 0 0 123 c0 68 -3 125 -7 127 -5 2 -25 0 -46 -4z"/>
<path d="M5495 3220 c-79 -17 -149 -84 -187 -179 -22 -54 -23 -68 -25 -441 -3
-418 1 -459 51 -544 53 -91 128 -130 244 -128 85 3 141 32 195 103 31 42 54
102 63 167 8 58 8 713 1 762 -18 108 -76 197 -152 234 -52 26 -137 37 -190 26z
m115 -222 c11 -12 21 -31 21 -42 7 -98 3 -747 -4 -769 -21 -64 -93 -73 -123
-15 -15 28 -17 78 -17 393 0 198 3 374 7 390 16 65 75 87 116 43z"/>
<path d="M6571 3219 c-78 -15 -153 -91 -188 -192 -16 -47 -18 -92 -18 -457 0
-397 0 -406 23 -461 48 -120 138 -182 260 -180 137 2 227 83 263 238 11 50 16
740 5 799 -15 78 -54 155 -101 197 -55 49 -154 72 -244 56z m105 -207 c35 -23
38 -53 40 -417 1 -198 -2 -377 -8 -398 -18 -73 -92 -88 -124 -24 -15 28 -17
75 -18 387 -1 356 3 410 32 443 15 17 58 23 78 9z"/>
<path d="M5990 3201 c-1 -3 -1 -319 -1 -702 -1 -602 -3 -701 -16 -728 -17 -34
-48 -47 -88 -37 l-25 6 0 -109 0 -110 34 -6 c46 -9 124 -1 166 17 70 31 121
112 138 221 5 32 9 371 8 755 l-1 697 -107 1 c-60 0 -108 -2 -108 -5z"/>
<path d="M3890 1512 c-46 -6 -78 -23 -83 -45 -2 -12 -4 -288 -3 -614 1 -552 2
-593 19 -610 16 -16 45 -18 329 -18 377 -1 353 -9 352 121 -1 124 7 119 -237
119 l-197 0 0 502 c0 490 -1 504 -20 523 -12 12 -34 20 -57 21 -21 0 -47 2
-58 3 -11 1 -31 0 -45 -2z"/>
<path d="M4724 1510 c-91 -9 -84 46 -84 -635 0 -577 1 -604 19 -626 l19 -24
313 0 c378 -1 349 -12 352 135 1 50 -13 90 -33 98 -11 4 -106 7 -210 7 -124 0
-190 3 -191 10 0 5 -2 231 -3 500 -2 270 -4 495 -4 501 -4 25 -95 42 -178 34z"/>
<path d="M5578 1510 c-111 -8 -101 52 -101 -645 0 -556 1 -608 17 -623 25 -25
198 -25 223 1 16 16 18 47 18 392 0 278 3 371 11 362 6 -7 80 -124 164 -262
323 -529 304 -501 359 -512 73 -14 181 -2 200 21 16 19 17 1206 2 1235 -14 26
-36 32 -118 32 -66 0 -121 -12 -125 -28 0 -5 -2 -172 -4 -373 -1 -201 -2 -369
-3 -375 -1 -8 -134 203 -196 310 -93 161 -270 436 -289 449 -29 19 -69 23
-158 16z"/>
<path d="M1536 1488 c-23 -33 -22 -168 2 -197 16 -20 27 -21 162 -22 l146 -1
-1 -492 c0 -270 1 -501 3 -512 6 -32 45 -45 134 -45 56 0 87 4 104 16 l24 15
0 510 0 509 147 0 c120 0 149 3 162 16 21 21 23 184 2 208 -12 15 -56 17 -442
17 l-428 0 -15 -22z"/>
<path d="M2591 1493 l-22 -18 3 -476 3 -475 38 -76 c44 -90 103 -148 192 -188
83 -38 142 -49 267 -49 258 1 405 90 478 290 18 48 19 86 20 515 l0 463 -22
15 c-35 25 -188 22 -219 -3 l-23 -19 -1 -428 c0 -427 -1 -429 -23 -473 -45
-86 -121 -126 -227 -119 -76 5 -115 21 -159 65 -60 59 -60 58 -61 527 l-1 429
-23 18 c-33 27 -188 28 -220 2z"/>
</g>
</svg>
